G04 Layer: TopLayer*
G04 EasyEDA v6.5.46, 2025-05-31 14:15:50*
G04 75a4abc2973e463bb7fec089d6695cdc,10*
G04 Gerber Generator version 0.2*
G04 Scale: 100 percent, Rotated: No, Reflected: No *
G04 Dimensions in millimeters *
G04 leading zeros omitted , absolute positions ,4 integer and 5 decimal *
%FSLAX45Y45*%
%MOMM*%

%ADD10C,0.2540*%
%ADD11R,0.7000X3.2800*%
%ADD12R,2.9400X5.0000*%
%ADD13O,2.999994X1.9999959999999999*%
%ADD14C,1.5500*%
%ADD15C,0.6100*%

%LPD*%
D10*
X2070328Y-2636977D02*
G01*
X2070328Y-2033092D01*
X3306013Y-1676400D02*
G01*
X2427020Y-1676400D01*
X2070328Y-2033092D01*
X4048607Y-3876979D02*
G01*
X2784602Y-3876979D01*
X4048607Y-3599078D02*
G01*
X4048607Y-3876979D01*
X2784602Y-3599078D02*
G01*
X2784602Y-3738016D01*
X2784602Y-3738016D02*
G01*
X2784602Y-3876979D01*
X2784602Y-3738016D02*
G01*
X2645638Y-3876979D01*
X2296007Y-3876979D01*
X2296007Y-3599078D02*
G01*
X2296007Y-3876979D01*
X3161614Y-2637154D02*
G01*
X3161791Y-2636977D01*
X3467430Y-2636977D01*
X3467608Y-2637154D01*
X3467608Y-2743200D02*
G01*
X3467608Y-2637154D01*
X3467608Y-2743200D02*
G01*
X3467608Y-2829077D01*
X3467608Y-2829077D02*
G01*
X3467608Y-3020974D01*
X3773601Y-2829077D02*
G01*
X3773601Y-3020974D01*
X4048607Y-3599078D02*
G01*
X4048607Y-3321151D01*
X3773449Y-3021126D02*
G01*
X3773449Y-3045993D01*
X4048607Y-3321151D01*
X3467608Y-3020974D02*
G01*
X3467760Y-3021126D01*
X3773449Y-3021126D01*
X3773449Y-3021126D02*
G01*
X3773601Y-3020974D01*
X3161614Y-2829077D02*
G01*
X3161614Y-2647238D01*
X3161614Y-2647238D02*
G01*
X3161614Y-2637154D01*
X2021001Y-2829077D02*
G01*
X2021001Y-2637154D01*
X1032002Y-3876979D02*
G01*
X2296007Y-3876979D01*
X1032002Y-3599078D02*
G01*
X1032002Y-3876979D01*
X1409014Y-2829077D02*
G01*
X1409014Y-2637154D01*
X1715007Y-2769666D02*
G01*
X1715007Y-2637154D01*
X1715007Y-2769666D02*
G01*
X1715007Y-2829077D01*
X1715007Y-3020974D02*
G01*
X1715160Y-3021126D01*
X2020849Y-3021126D01*
X2021001Y-3020974D01*
X1715007Y-2829077D02*
G01*
X1715007Y-3020974D01*
X2021001Y-2829077D02*
G01*
X2021001Y-3020974D01*
X3161614Y-2637154D02*
G01*
X3161436Y-2636977D01*
X2070328Y-2636977D01*
X2070328Y-2636977D02*
G01*
X2021179Y-2636977D01*
X2021001Y-2637154D01*
X1232128Y-2033092D02*
G01*
X1232128Y-2459913D01*
X1409192Y-2636977D01*
X1409014Y-2637154D02*
G01*
X1409192Y-2636977D01*
X1409192Y-2636977D02*
G01*
X1714830Y-2636977D01*
X1715007Y-2637154D01*
X1817014Y-2829077D02*
G01*
X1817014Y-2637154D01*
X3805986Y-1676400D02*
G01*
X3569614Y-1912772D01*
X3569614Y-2829077D01*
X1232128Y-1563090D02*
G01*
X1817014Y-2147976D01*
X1817014Y-2637154D01*
X1361795Y-1433423D02*
G01*
X1232128Y-1303756D01*
X1232128Y-1093088D01*
X1232128Y-1563090D02*
G01*
X1361795Y-1433423D01*
X1361795Y-1433423D02*
G01*
X3563010Y-1433423D01*
X3805986Y-1676400D01*
X3556025Y-1676400D02*
G01*
X3442715Y-1563090D01*
X2070328Y-1563090D01*
X1918995Y-2637154D02*
G01*
X1890623Y-2608783D01*
X1890623Y-1742795D01*
X2070328Y-1563090D01*
X1918995Y-2829077D02*
G01*
X1918995Y-2637154D01*
X3671595Y-2637154D02*
G01*
X3687038Y-2637154D01*
X3709797Y-2614396D01*
X3671595Y-2829077D02*
G01*
X3671595Y-2637154D01*
D11*
G01*
X2021001Y-2829077D03*
G01*
X1918995Y-2829077D03*
G01*
X1817014Y-2829077D03*
G01*
X1715007Y-2829077D03*
G01*
X1613001Y-2829077D03*
G01*
X1510995Y-2829077D03*
G01*
X1409014Y-2829077D03*
G01*
X1307007Y-2829077D03*
D12*
G01*
X1032002Y-3599078D03*
G01*
X2296007Y-3599078D03*
D11*
G01*
X3773601Y-2829077D03*
G01*
X3671595Y-2829077D03*
G01*
X3569614Y-2829077D03*
G01*
X3467608Y-2829077D03*
G01*
X3365601Y-2829077D03*
G01*
X3263595Y-2829077D03*
G01*
X3161614Y-2829077D03*
G01*
X3059607Y-2829077D03*
D12*
G01*
X2784602Y-3599078D03*
G01*
X4048607Y-3599078D03*
D13*
G01*
X2070328Y-2033092D03*
G01*
X2070328Y-1563090D03*
G01*
X2070328Y-1093088D03*
G01*
X1232128Y-2033092D03*
G01*
X1232128Y-1563090D03*
G01*
X1232128Y-1093088D03*
D14*
G01*
X3306013Y-1676400D03*
G01*
X3556025Y-1676400D03*
G01*
X3805986Y-1676400D03*
D15*
G01*
X3709797Y-2614396D03*
M02*
